<?xml version="1.0" encoding="UTF-8" standalone="no"?>
<svg
   xmlns:dc="http://purl.org/dc/elements/1.1/"
   xmlns:cc="http://creativecommons.org/ns#"
   xmlns:rdf="http://www.w3.org/1999/02/22-rdf-syntax-ns#"
   xmlns:svg="http://www.w3.org/2000/svg"
   xmlns="http://www.w3.org/2000/svg"
   xmlns:sodipodi="http://sodipodi.sourceforge.net/DTD/sodipodi-0.dtd"
   xmlns:inkscape="http://www.inkscape.org/namespaces/inkscape"
   version="1.1"
   id="Layer_1"
   x="0px"
   y="0px"
   viewBox="0 0 1770.2 780.1"
   style="enable-background:new 0 0 1770.2 780.1;"
   xml:space="preserve"
   sodipodi:docname="logo.svg"
   inkscape:version="1.0.1 (3bc2e813f5, 2020-09-07)"><metadata
   id="metadata19"><rdf:RDF><cc:Work
       rdf:about=""><dc:format>image/svg+xml</dc:format><dc:type
         rdf:resource="http://purl.org/dc/dcmitype/StillImage" /></cc:Work></rdf:RDF></metadata><defs
   id="defs17"><linearGradient
     id="paint0_linear"
     x1="3.5"
     y1="2"
     x2="13.3333"
     y2="22.6667"
     gradientUnits="userSpaceOnUse"
     gradientTransform="matrix(37.807639,0,0,37.807639,82.437041,93.418975)"><stop
       offset="0.0416667"
       stop-color="#4AC7C7"
       id="stop29" /><stop
       offset="1"
       stop-color="#168097"
       id="stop31" /></linearGradient><linearGradient
     id="paint1_linear"
     x1="4.24967"
     y1="3.0006499"
     x2="12.4441"
     y2="20.2229"
     gradientUnits="userSpaceOnUse"
     gradientTransform="matrix(37.807639,0,0,37.807639,82.437041,93.418975)"><stop
       offset="0.0416667"
       stop-color="#4AC7C7"
       id="stop34" /><stop
       offset="1"
       stop-color="#168097"
       id="stop36" /></linearGradient><filter
     id="filter0_d"
     x="2.33301"
     y="3.8339801"
     width="11.1618"
     height="16.467501"
     filterUnits="userSpaceOnUse"
     color-interpolation-filters="sRGB"><feFlood
       flood-opacity="0"
       result="BackgroundImageFix"
       id="feFlood14" /><feColorMatrix
       in="SourceAlpha"
       type="matrix"
       values="0 0 0 0 0 0 0 0 0 0 0 0 0 0 0 0 0 0 127 0"
       id="feColorMatrix16" /><feOffset
       dy="4"
       id="feOffset18" /><feGaussianBlur
       stdDeviation="2"
       id="feGaussianBlur20" /><feColorMatrix
       type="matrix"
       values="0 0 0 0 0 0 0 0 0 0 0 0 0 0 0 0 0 0 0.25 0"
       id="feColorMatrix22" /><feBlend
       mode="normal"
       in2="BackgroundImageFix"
       result="effect1_dropShadow"
       id="feBlend24" /><feBlend
       mode="normal"
       in="SourceGraphic"
       in2="effect1_dropShadow"
       result="shape"
       id="feBlend26" /></filter></defs><sodipodi:namedview
   pagecolor="#ffffff"
   bordercolor="#666666"
   borderopacity="1"
   objecttolerance="10"
   gridtolerance="10"
   guidetolerance="10"
   inkscape:pageopacity="0"
   inkscape:pageshadow="2"
   inkscape:window-width="924"
   inkscape:window-height="1002"
   id="namedview15"
   showgrid="false"
   inkscape:zoom="0.35137274"
   inkscape:cx="959.039"
   inkscape:cy="502.78072"
   inkscape:window-x="2892"
   inkscape:window-y="54"
   inkscape:window-maximized="1"
   inkscape:current-layer="Layer_1"
   inkscape:document-rotation="0" />
<style
   type="text/css"
   id="style2">
	.st0{fill:#4A90E2;}
	.st1{fill:#000034;}
	.st2{fill:#FFFFFF;}
</style>


<path
   d="m 384.89866,698.34137 c 167.04549,0 302.4611,-135.41563 302.4611,-302.46111 0,-167.04472 -135.41561,-302.461102 -302.4611,-302.461102 -167.04473,0 -302.461109,135.416382 -302.461109,302.461102 0,167.04548 135.416379,302.46111 302.461109,302.46111 z"
   fill="url(#paint0_linear)"
   id="path2"
   style="fill:url(#paint0_linear);stroke-width:37.8076" /><path
   d="m 384.91113,673.11233 c 153.12358,0 277.25741,-124.13382 277.25741,-277.25664 0,-153.12434 -124.13383,-277.25627 -277.25741,-277.25627 -153.12432,0 -277.25625,124.13193 -277.25625,277.25627 0,153.12282 124.13193,277.25664 277.25625,277.25664 z"
   fill="#ffffff"
   id="path4"
   style="stroke-width:37.8076" /><path
   d="m 384.88618,647.95512 c 139.20508,0 252.04953,-112.84824 252.04953,-252.05028 0,-139.20394 -112.84445,-252.05105 -252.04953,-252.05105 -139.20356,0 -252.05067,112.84711 -252.05067,252.05105 0,139.20204 112.84711,252.05028 252.05067,252.05028 z"
   fill="url(#paint1_linear)"
   id="path6"
   style="fill:url(#paint1_linear);stroke-width:37.8076" /><g
   filter="url(#filter0_d)"
   id="g10"
   transform="matrix(37.807638,0,0,37.807638,82.437551,93.419158)"><path
     fill-rule="evenodd"
     clip-rule="evenodd"
     d="m 8.10895,8.71463 0.0083,3.58677 H 7.20715 L 7.18778,8.72014 V 8.69259 H 7.13522 L 6.33301,8.68432 V 7.94051 L 7.13799,7.94602 H 7.19055 L 7.19885,7.63197 6.33301,7.62921 V 6.89367 L 7.19332,6.88816 c 0,0 0,-0.85952 0.04702,-1.76311 C 7.28737,4.20218 8.02596,3.57682 9.49485,3.93771 L 9.32611,4.77794 c 0,0 -1.05948,-0.29477 -1.16184,0.39394 C 8.11172,5.51349 8.11448,6.16363 8.12555,6.87714 L 9.25142,6.86612 V 7.61544 L 8.14491,7.6237 8.13938,7.95153 h 1.1231 L 9.26525,8.6733 8.13661,8.68432 H 8.11172 v 0.03031 z"
     fill="#ffffff"
     id="path8" /></g><text
   xml:space="preserve"
   style="font-style:normal;font-variant:normal;font-weight:normal;font-stretch:normal;font-size:251.445px;line-height:3.45;font-family:sans-serif;-inkscape-font-specification:'sans-serif, Normal';font-variant-ligatures:normal;font-variant-caps:normal;font-variant-numeric:normal;font-variant-east-asian:normal;fill:#ffffff;fill-opacity:1;stroke:none;stroke-width:1.30961"
   x="783.59058"
   y="475.94659"
   id="text87"><tspan
     sodipodi:role="line"
     id="tspan85"
     x="783.59058"
     y="475.94659"
     style="font-style:normal;font-variant:normal;font-weight:normal;font-stretch:normal;font-size:251.445px;font-family:sans-serif;-inkscape-font-specification:'sans-serif, Normal';font-variant-ligatures:normal;font-variant-caps:normal;font-variant-numeric:normal;font-variant-east-asian:normal;fill:#000000;stroke-width:1.30961">FLAIRR</tspan></text></svg>
